/* XPM */
static char *_5dc28ff0cfc4e14a0106a32987c41e8er7VwQMDmFW1vVRb[] = {
/* columns rows colors chars-per-pixel */
"32 32 8 1 ",
"  c #C0CBDC",
". c #8B9BB4",
"X c #5A6988",
"o c #193C3E",
"O c #265C42",
"+ c #3E8948",
"@ c #63C74D",
"# c white",
/* pixels */
"      .  XXXX    XX...XXXX...XXo",
"         XX      XX .      .  XO",
"...XXXXXX..   XXXXX..   .  .   o",
" XX     X....XX..X         X   +",
" XX .   XXXXX.XXXX .       X   o",
"XX.     X.XXXXXXX.     .XXXXXXXO",
".X....XXXXX     X..XXXXXXXX  ..O",
".X ...XX..X.    X  XXXX  XXXX..O",
"XXXXXXXX.XX     X  X  XX...X.XXO",
".XXXX  XXX...XXXX..X  XX.      O",
" X X.  ......X   XXXXXXXX     .O",
" XXX......XXXX...XXXXXXXX..    +",
" XXX... .      ...   . X  .    O",
"X  X. ...      ...     ..XX...X+",
"X..X. .          .     ..XXXXXX@",
"XXXXX X          XXXX....X  XXXO",
" XXXXXX ..    .. X  X  XXX  X. O",
" XXXXXX   .   .. X  XXXX.X..X  O",
" .X....          XXXX.. XX..X..O",
"..X.  ..XXXXXX....XXXXXXXX.XXXXO",
"   .  ..X  X.  .. X       .    O",
" . .  ..XXXX.  XXXX       X .  O",
"   X  XX.XXXXXXXX         .    +",
"   XXXXXXXXX... . .   XXX..    O",
"   XXXXX     .. .     X..XX .  O",
"   .  .X  .  XXXXXXXXXX.   XXXXO",
"X...  .X     ..X.X .  XX   XX..O",
"X....XXX     ..XXX ..XXXXXX   .O",
"X. ..X.XXX...    X   .XX  X   XO",
"XXXXXXXXXX...  . X   XXXXXXXXXXO",
"XXXXXXXXXX...    X   X      X.X+",
"         XXXX    XXXXX      X Xo"
};
