/* XPM */
static char *_1e87409bef140ca9937b636de0d22e1pIC0Fey6CQOVXiAZ[] = {
/* columns rows colors chars-per-pixel */
"32 32 23 1 ",
"  c white",
". c #FFBF36",
"X c None",
"o c #FFCF68",
"O c #FFF275",
"+ c #FFA31F",
"@ c #17111A",
"# c #FFB32B",
"$ c #FFD1AB",
"% c #CF7957",
"& c #FCEA69",
"* c #753939",
"= c #FFC735",
"- c #F6DF37",
"; c #AE450C",
": c #E7A581",
"> c #D9762E",
", c #C55D29",
"< c #FFA070",
"1 c white",
"2 c #B4664E",
"3 c #FFBF36",
"4 c #FFF598",
/* pixels */
"                .               ",
"               .o.              ",
"              .oO+.  @@@        ",
"               .#.  @$$$@@      ",
"                X  @$$$$$$@     ",
"                .  @$$$$$$$@    ",
"                  @$$$$$$$$@    ",
"        .        @$$$$$$$$$$@   ",
"        o       @$$$$$$$$$$$@   ",
"      .oO+.    @$$$$$$$$$$$%@   ",
"        #     @&**$$$$$$$%%*@   ",
"        .    @&==-*$$$%%***@    ",
"          @@@*;==-*:%***@@@     ",
"        @@$$$:*;===**@@@        ",
"      @@$$$$$$:*;>>*@           ",
"     @%$$$$$$$$:*;,,>@          ",
"    @$<%$$$$$$$<*;;,=>@         ",
"   @1$$$%$$$$$<*@>>,>==@        ",
"   @1$<%$%$$<**@ @>>>,>=@       ",
"   @$<$<2$%%*::@  @==;,>>@@     ",
"   @$<<<%2$:::@    @==;;>>>@    ",
"    @%<%<%2:::@     @=>;;@@@    ",
"    @$%<%<2$:@   .. @;>;@       ",
"     @$2<<2$:@   o3  @;;;@      ",
"      @$22$$@  .o1O3. @;@       ",
"       @$$$:@  .34O+X  @@       ",
"        @@@@     3#             ",
"                 .X             ",
"                                ",
"                                ",
"                                ",
"                                "
};
