/* XPM */
static char *aa708611e08645f2a2230f5a4e9f53f7QINBOQLjjYueOxpG[] = {
/* columns rows colors chars-per-pixel */
"32 32 15 1 ",
"  c None",
". c #FF9611",
"X c #17111A",
"o c #B46C5B",
"O c #AA5844",
"+ c #8C3F34",
"@ c #492B38",
"# c #673435",
"$ c #572F36",
"% c #713735",
"& c #372538",
"* c #512D37",
"= c #472A37",
"- c #5F3136",
"; c white",
/* pixels */
"                                ",
"                                ",
"                    XX          ",
"                   XoOX         ",
"                   XO+X         ",
"                  Xo+X  XX      ",
"                  XO+@XXOOX     ",
"                 XO+@#OO++#X    ",
"                XO+@#O++XX@X    ",
"               XO+@#+++X  X     ",
"              XO+#X+++X#X       ",
"             XO+#X X+X X$X      ",
"            XO+#X  X+#X X       ",
"           XO+#X    X#@X        ",
"          XO+#X      XX         ",
"         XO+#X                  ",
"     XXXXO+#X                   ",
"    XoooO@#X                    ",
"   XoOOO++@X                    ",
"  XoOO+++%+#X             .     ",
"  XOO+++++%#X             .     ",
"  XO++++++%#X                   ",
"  X++&&*++%@X                   ",
"  X++=@#+%+@X             .     ",
"   X+@--%+@X        ..   ..     ",
"    X+++#@X        ...  ...     ",
"     XXXXX                      ",
"                                ",
"                                ",
"                                ",
"                                ",
"                                "
};
