/* XPM */
static char *cfedac08f9e543c2c6f6b6bee0645cd1ytseT03MG3rbo3QX[] = {
/* columns rows colors chars-per-pixel */
"32 32 10 1 ",
"  c None",
". c #17111A",
"X c #9D5546",
"o c #FFDD34",
"O c white",
"+ c #EF9F32",
"@ c #2B5586",
"# c #3894D1",
"$ c #389AD5",
"% c #6BEEE8",
/* pixels */
"                                ",
"                                ",
"                                ",
"                                ",
"               ....             ",
"             ..XooX..           ",
"          ...XooXXooX...        ",
"         .OOooooooooo++X.       ",
"        .OooXXXXXXXXXX++X.      ",
"        .ooX@#$$$$$$%%X++.      ",
"        .oX@$$$$$$$%%%%X+.      ",
"        .oX$$$$$$$O%%%#X+.      ",
"        .oX$$$$$$OO%%$$X+.      ",
"        .oX$$$$$OOO%$$$X+.      ",
"        .oX$$$$%OOO$$$#X+.      ",
"        .oX#$$%%OO$$$$#X+.      ",
"        .oX#$O%%O$$$$$%X+.      ",
"        .oX#OO%%$$$$$%%X+.      ",
"        .oX%OO%$$$$$O%%X+.      ",
"        .oX%OO$$$$$OO%#X+.      ",
"        .oX%O$$$$$OOO$#X+.      ",
"        .oX%$$$$$%OO$$#X+.      ",
"        .oX$$$$$%%O$$$#X+.      ",
"        .+X@$$$%%%$$$$@X+.      ",
"        .++X@#%%%####@X++.      ",
"        .X++XXXXXXXXXX+++.      ",
"         .X+++++++++++++.       ",
"          ...X++XX++X...        ",
"             ..X++X..           ",
"               ....             ",
"                                ",
"                                "
};
