/* XPM */
static char *_4b63ffdac3d4bde8da960bb1f4e550cPHGI0SqSZbKvWbG8[] = {
/* columns rows colors chars-per-pixel */
"32 32 27 1 ",
"  c None",
". c #323234",
"X c #545456",
"o c #767678",
"O c #979799",
"+ c #B7B7BB",
"@ c #2E1E22",
"# c #910000",
"$ c #FFBBBD",
"% c #4C3400",
"& c #C70000",
"* c #FF5F60",
"= c #B19D00",
"- c #DDBD9C",
"; c #EEDAB3",
": c #FDF0C5",
"> c #806800",
", c #E5D300",
"< c #7A6843",
"1 c #CA9E73",
"2 c #444444",
"3 c #6D6D6E",
"4 c #534721",
"5 c #A77E5D",
"6 c #8B5E4A",
"7 c #77584A",
"8 c white",
/* pixels */
"            .......             ",
"          ..XXoooXX..           ",
"         .XooOOOOOooX.          ",
"        .XoOOO+++OOOoX.         ",
"       .XoOOO+++++OOOoX.        ",
"      .XoOOO+++++++OOOoX.       ",
"      .ooOOO+++++++OOOoo.       ",
"     .XoOOOOO+++++OOOOOoX.      ",
"     .Xo..XooOOOOOooX..oX.      ",
"     .X.XO..XXXXXXX..OX.X.      ",
"    .o.XooOO+++++++OOooX.o.     ",
"    .o.XX@XooOOOOOooX@XX.o.     ",
"    .X.XOX@@@@@@@@@@@XOX.X.     ",
"   ##..XoOX@@@@@@@@@XOoX...     ",
"  #$$#..XoOO+++++++OOoX...      ",
" %&**&%X..XooOOOOOooX..XX.      ",
" %=&&=%Xo.-;:::::::;-.oX.       ",
"  >,,>X...<1-;;;;;-1<...X.      ",
"   %>%O+222<<<<<<<<<222+Oo.     ",
"   %=%OO+XXXX3ooo3XXXX+OOX.     ",
"   %=>%X..XX3+OOO+3XX..XX.      ",
"    >=%Oo.oOOoXXXoOOo.oO+o.     ",
"    %=%oX...XXoOoXX...XoOO.     ",
"    455X..XX..XXX..XX..X554     ",
"    466..Xo+oX+++Xo+oX..664     ",
"    .44%.XO+.oO+Oo.+OX..44.     ",
"    .%>%2.O.X.oOo.X.O.2.33.     ",
"    .%>%22.X+o...o+X.22.33.     ",
"     .%%..46674.47664...3.      ",
"      .   45564 46554   .       ",
"           444   444            ",
"                                "
};
