/* XPM */
static char *_6011ff3ece14879a203d690fcd131621PGMfnpde5cxEKLT[] = {
/* columns rows colors chars-per-pixel */
"32 32 8 1 ",
"  c None",
". c #8B9BB5",
"X c #D77643",
"o c #FDAE35",
"O c #FEE861",
"+ c #5B6986",
"@ c #ECF0F1",
"# c white",
/* pixels */
"      .        XoO       +      ",
"      @        Xoo       @      ",
"      @        o o      . .     ",
"      .        o o       .      ",
"      .        XOo       +      ",
"     .+.       Xoo       @      ",
"    . + .       o       . .     ",
"    .   .       o        .      ",
"    .   @      XoO       +      ",
"    .   .      Xoo       @      ",
"    . . .      o o      . .     ",
"     .@.       o o       .      ",
"      @        XOo       +      ",
"      .        Xoo       @      ",
"      .         o       . .     ",
"     .+.        o        .      ",
"    . + .      XoO       +      ",
"    .   .      Xoo       @      ",
"    .   @      o o      . .     ",
"    .   .      o o       .      ",
"    . . .      XOo       +      ",
"     .@.       Xoo       @      ",
"      .         o       . .     ",
"      .         o        .      ",
"      .        XoO       +      ",
"     .+.       Xoo       @      ",
"    . + .      o o      . .     ",
"    .   .      o o       .      ",
"    .   @      XOo       +      ",
"    .   .      Xoo       @      ",
"    . . .       o       . .     ",
"     .@.        o        .      "
};
